<svg width="53" height="53" viewBox="0 0 53 53" fill="none" xmlns="http://www.w3.org/2000/svg">
<ellipse cx="26.716" cy="26.9167" rx="21.0109" ry="21" fill="white"/>
<ellipse cx="26.716" cy="26.9167" rx="21.0109" ry="21" fill="black" fill-opacity="0.2"/>
<path d="M40.5606 20.8988C40.5606 20.8988 40.2858 18.822 39.4388 17.9071C38.3641 16.7079 37.1609 16.7014 36.6082 16.6331C32.6541 16.3276 26.7246 16.3276 26.7246 16.3276H26.7116C26.7116 16.3276 20.7822 16.3276 16.8281 16.6331C16.2769 16.7014 15.0738 16.7079 13.9975 17.9071C13.1521 18.822 12.8757 20.8988 12.8757 20.8988C12.8757 20.8988 12.5928 23.3363 12.5928 25.7721V28.0569C12.5928 30.496 12.8757 32.9319 12.8757 32.9319C12.8757 32.9319 13.1504 35.0086 13.9975 35.9203C15.0738 37.1195 16.4834 37.0821 17.1126 37.2073C19.3726 37.4396 26.7181 37.5111 26.7181 37.5111C26.7181 37.5111 32.6541 37.5014 36.6082 37.1975C37.1593 37.126 38.3641 37.1195 39.4388 35.9219C40.2842 35.0086 40.5606 32.9335 40.5606 32.9335C40.5606 32.9335 40.8435 30.496 40.8435 28.0585V25.7738C40.8435 23.3363 40.5606 20.8988 40.5606 20.8988ZM23.19 32.2153V21.6235L32.0216 26.9194L23.19 32.2153Z" fill="#3A3939"/>
<path d="M26.7167 2.54297C40.1641 2.54297 51.1044 13.4776 51.1044 26.918C51.1044 40.3583 40.1641 51.293 26.7167 51.293C13.2693 51.293 2.32897 40.3583 2.32897 26.918C2.32897 13.4776 13.2693 2.54297 26.7167 2.54297ZM26.7167 0.917969C12.3507 0.917969 0.703125 12.5595 0.703125 26.918C0.703125 41.2765 12.3507 52.918 26.7167 52.918C41.0827 52.918 52.7302 41.2781 52.7302 26.918C52.7302 12.5578 41.0827 0.917969 26.7167 0.917969Z" fill="white"/>
<path d="M26.7167 2.54297C40.1641 2.54297 51.1044 13.4776 51.1044 26.918C51.1044 40.3583 40.1641 51.293 26.7167 51.293C13.2693 51.293 2.32897 40.3583 2.32897 26.918C2.32897 13.4776 13.2693 2.54297 26.7167 2.54297ZM26.7167 0.917969C12.3507 0.917969 0.703125 12.5595 0.703125 26.918C0.703125 41.2765 12.3507 52.918 26.7167 52.918C41.0827 52.918 52.7302 41.2781 52.7302 26.918C52.7302 12.5578 41.0827 0.917969 26.7167 0.917969Z" fill="black" fill-opacity="0.2"/>
</svg>
