<svg width="40" height="41" viewBox="0 0 40 41" fill="none" xmlns="http://www.w3.org/2000/svg">
<g clip-path="url(#clip0_1_86)">
<path d="M37.1511 34.0129L39.3773 19.8648C39.3878 19.812 39.3878 19.7698 39.3878 19.717C39.3878 16.7418 36.9718 14.3258 33.9965 14.3258H25.63V8.30144C25.63 5.75878 24.8915 3.93354 23.425 2.8574C21.1039 1.15877 17.9176 2.12941 17.7805 2.17161C17.3796 2.29822 17.1158 2.66749 17.1158 3.07896V9.84181C17.1158 15.1803 10.9332 16.995 10.6695 17.0689C10.5429 17.1005 10.4373 17.1638 10.3424 17.2377C10.0153 16.8262 9.50891 16.5625 8.94973 16.5625H2.38734C1.40614 16.5625 0.604309 17.3643 0.604309 18.3455V36.8932C0.604309 37.8744 1.40614 38.6762 2.38734 38.6762H8.94973C9.60386 38.6762 10.1841 38.3175 10.4901 37.79C11.4607 38.7184 12.769 39.2776 14.2039 39.2776H30.747C34.408 39.2671 36.7397 37.3574 37.1511 34.0129ZM8.82313 36.7561H2.51394V18.4615H8.82313V36.7561ZM10.7328 33.8863V18.9152C10.8805 18.9469 11.0282 18.9469 11.1864 18.9047C11.5029 18.8203 19.0254 16.6363 19.0254 9.84181V3.84914C19.8484 3.72253 21.2727 3.64868 22.2961 4.39776C23.2456 5.0941 23.7204 6.40235 23.7204 8.30144V15.2964C23.7204 15.8239 24.153 16.2565 24.6805 16.2565H34.0071C35.8956 16.2565 37.4465 17.7758 37.4782 19.6643L35.2626 33.7492C35.2626 33.7597 35.2626 33.7703 35.2626 33.7808C34.9672 36.1652 33.4585 37.368 30.7576 37.368H14.2144C12.2942 37.3574 10.7328 35.796 10.7328 33.8863Z" fill="black"/>
</g>
<defs>
<clipPath id="clip0_1_86">
<rect width="40" height="40" fill="white" transform="translate(-0.000183105 0.566528)"/>
</clipPath>
</defs>
</svg>
