<svg width="32" height="32" viewBox="0 0 32 32" fill="none" xmlns="http://www.w3.org/2000/svg">
<circle cx="15.5" cy="15.5" r="13.5" fill="white"/>
<circle cx="15.5" cy="15.5" r="13.5" fill="black" fill-opacity="0.2"/>
<path d="M22.1247 9H10.8753C9.81612 9 9 9.81612 9 10.8753V22.1247C9 23.1829 9.81612 24 10.8753 24H22.1247C23.1829 24 24 23.1839 24 22.1247V10.8753C24 9.81612 23.1829 9 22.1247 9ZM16.5111 13.5535C18.1748 13.5535 19.5225 14.8597 19.5225 16.4716C19.5225 18.0826 18.1748 19.3898 16.5111 19.3898C14.8485 19.3898 13.5008 18.0826 13.5008 16.4716C13.5008 14.8597 14.8495 13.5535 16.5111 13.5535ZM22.1247 21.6559C22.1247 21.985 21.984 22.1247 21.6559 22.1247H11.3441C11.016 22.1247 10.8753 21.985 10.8753 21.6559V15.0936L12.0437 15.3477C11.9182 15.7558 11.8503 16.1871 11.8503 16.6347C11.8503 19.1276 13.9382 21.1507 16.5111 21.1507C19.0851 21.1507 21.1719 19.1286 21.1719 16.6347C21.1719 16.1871 21.1041 15.7558 20.9785 15.3477L22.1247 15.0936V21.6559ZM22.1247 13.2193C22.1247 13.4785 21.9151 13.6881 21.6559 13.6881H19.7807C19.5215 13.6881 19.3119 13.4785 19.3119 13.2193V11.3441C19.3119 11.0849 19.5215 10.8753 19.7807 10.8753H21.6559C21.9151 10.8753 22.1247 11.0849 22.1247 11.3441V13.2193Z" fill="#3A3939"/>
<path d="M16 1C24.271 1 31 7.729 31 16C31 24.271 24.271 31 16 31C7.729 31 1 24.271 1 16C1 7.729 7.729 1 16 1ZM16 0C7.163 0 0 7.164 0 16C0 24.836 7.163 32 16 32C24.837 32 32 24.837 32 16C32 7.163 24.837 0 16 0Z" fill="white"/>
<path d="M16 1C24.271 1 31 7.729 31 16C31 24.271 24.271 31 16 31C7.729 31 1 24.271 1 16C1 7.729 7.729 1 16 1ZM16 0C7.163 0 0 7.164 0 16C0 24.836 7.163 32 16 32C24.837 32 32 24.837 32 16C32 7.163 24.837 0 16 0Z" fill="black" fill-opacity="0.2"/>
</svg>
