<svg width="32" height="32" viewBox="0 0 32 32" fill="none" xmlns="http://www.w3.org/2000/svg">
<circle cx="16" cy="16" r="13" fill="white"/>
<circle cx="16" cy="16" r="13" fill="black" fill-opacity="0.2"/>
<path d="M23.8298 11.8052C23.8298 11.8052 23.6644 10.5308 23.1547 9.96932C22.508 9.23335 21.784 9.22936 21.4514 9.18748C19.072 9 15.5039 9 15.5039 9H15.4961C15.4961 9 11.928 9 9.54863 9.18748C9.21697 9.22936 8.49298 9.23335 7.8453 9.96932C7.33656 10.5308 7.17024 11.8052 7.17024 11.8052C7.17024 11.8052 7 13.3011 7 14.7959V16.1981C7 17.6949 7.17024 19.1898 7.17024 19.1898C7.17024 19.1898 7.33558 20.4643 7.8453 21.0237C8.49298 21.7597 9.34122 21.7367 9.71984 21.8135C11.0798 21.9561 15.5 22 15.5 22C15.5 22 19.072 21.994 21.4514 21.8075C21.783 21.7637 22.508 21.7597 23.1547 21.0247C23.6634 20.4643 23.8298 19.1908 23.8298 19.1908C23.8298 19.1908 24 17.6949 24 16.1991V14.7969C24 13.3011 23.8298 11.8052 23.8298 11.8052ZM13.377 18.75V12.25L18.6914 15.5L13.377 18.75Z" fill="#3A3939"/>
<path d="M16 1C24.271 1 31 7.729 31 16C31 24.271 24.271 31 16 31C7.729 31 1 24.271 1 16C1 7.729 7.729 1 16 1ZM16 0C7.164 0 0 7.164 0 16C0 24.836 7.164 32 16 32C24.836 32 32 24.837 32 16C32 7.163 24.836 0 16 0Z" fill="white"/>
<path d="M16 1C24.271 1 31 7.729 31 16C31 24.271 24.271 31 16 31C7.729 31 1 24.271 1 16C1 7.729 7.729 1 16 1ZM16 0C7.164 0 0 7.164 0 16C0 24.836 7.164 32 16 32C24.836 32 32 24.837 32 16C32 7.163 24.836 0 16 0Z" fill="black" fill-opacity="0.2"/>
</svg>
