<svg width="23" height="23" viewBox="0 0 23 23" fill="none" xmlns="http://www.w3.org/2000/svg">
<path d="M21.6836 2.06934L17.2148 1.03809C16.7422 0.90918 16.2266 1.16699 16.0117 1.63965L13.9492 6.45215C13.7773 6.88184 13.9062 7.35449 14.25 7.65527L16.8711 9.80371C15.3242 13.0693 12.6172 15.8193 9.26562 17.4092L7.11719 14.7881C6.81641 14.4443 6.34375 14.3154 5.91406 14.4873L1.10156 16.5498C0.628906 16.7646 0.414062 17.2803 0.5 17.7529L1.53125 22.2217C1.66016 22.6943 2.04688 22.9951 2.5625 22.9951C13.5625 22.9951 22.5 14.1006 22.5 3.05762C22.5 2.58496 22.1562 2.19824 21.6836 2.06934Z" fill="#0D2B74"/>
</svg>
