<svg width="26" height="24" viewBox="0 0 26 24" fill="none" xmlns="http://www.w3.org/2000/svg">
<path d="M13.0194 22.45C19.115 18.3311 25.2107 13.7419 25.2107 7.6463C25.213 6.84516 25.0569 6.05148 24.7514 5.31088C24.4458 4.57029 23.9969 3.89739 23.4304 3.3309C22.8639 2.76441 22.1911 2.3155 21.4505 2.00998C20.7099 1.70446 19.9162 1.54836 19.115 1.55066C17.5476 1.55066 15.9976 2.14281 14.8046 3.33581L13.0194 5.12096L11.2343 3.33581C10.6694 2.76763 9.99776 2.31673 9.258 2.00905C8.51825 1.70137 7.72496 1.54297 6.92377 1.54297C6.12258 1.54297 5.32929 1.70137 4.58953 2.00905C3.84978 2.31673 3.17815 2.76763 2.61328 3.33581C2.04649 3.90131 1.59701 4.57323 1.29066 5.31295C0.984307 6.05268 0.827122 6.84564 0.82813 7.6463C0.82813 13.7419 6.92377 18.3311 13.0194 22.45Z" fill="black" fill-opacity="0.5" stroke="white" stroke-width="1.5"/>
</svg>
