<svg width="41" height="41" viewBox="0 0 41 41" fill="none" xmlns="http://www.w3.org/2000/svg">
<g clip-path="url(#clip0_1_90)">
<path d="M23.955 39.1892C21.6294 40.8963 18.4131 39.9149 18.2811 39.8737C17.9678 39.7747 17.7616 39.4861 17.7616 39.1644V32.0885C17.7616 29.6887 16.6235 27.6599 14.3721 26.0518C12.632 24.8065 10.8506 24.2951 10.8341 24.2869C10.8176 24.2869 10.8094 24.2787 10.7929 24.2704L10.3723 24.1302C10.1249 24.5343 9.6878 24.8065 9.17649 24.8065H1.87793C1.11096 24.8065 0.484192 24.1797 0.484192 23.4127V3.57878C0.484192 2.81181 1.11096 2.18504 1.87793 2.18504H9.18474C9.8445 2.18504 10.397 2.64687 10.5372 3.25714C11.5186 2.20978 12.9124 1.55003 14.4628 1.55003H31.7649C35.4431 1.55003 37.7935 3.47157 38.2058 6.82808L40.416 20.8644C40.7376 22.9014 39.9047 24.9632 38.2883 26.1177C37.3729 26.7775 36.2925 27.1239 35.1627 27.1239H26.1652V33.6884C26.1652 36.2615 25.423 38.1088 23.955 39.1892ZM9.07753 3.68599H1.97689V23.3138H9.07753V3.68599ZM35.1627 25.6312C35.9791 25.6312 36.7543 25.3837 37.4141 24.9054C38.5687 24.0725 39.1707 22.5798 38.9315 21.0953L36.7296 7.05075C36.7296 7.0425 36.7296 7.03426 36.7296 7.02601C36.3255 3.74372 33.8102 3.05097 31.7649 3.05097H14.4628C12.3186 3.05097 10.5785 4.79108 10.5785 6.93529V22.621L11.263 22.8519C11.5021 22.9179 13.3412 23.4787 15.205 24.8065C17.8523 26.6868 19.2543 29.2021 19.2543 32.0803V38.5624C20.112 38.7273 21.8356 38.8923 23.0809 37.9769C24.1365 37.2016 24.6725 35.7584 24.6725 33.6884V26.3734C24.6725 25.961 25.0107 25.6229 25.423 25.6229H35.1627V25.6312Z" fill="black"/>
</g>
<defs>
<clipPath id="clip0_1_90">
<rect width="40" height="40" fill="white" transform="matrix(1 0 0 -1 0.484192 40.8693)"/>
</clipPath>
</defs>
</svg>
