<svg width="52" height="52" viewBox="0 0 52 52" fill="none" xmlns="http://www.w3.org/2000/svg">
<path d="M34.4961 45.3086C39.5774 42.6087 42.9961 37.5623 42.9961 31.7825C42.9961 23.1585 28.4246 7.05859 28.4246 7.05859C28.4246 7.05859 25.2676 16.3589 16.2818 20.5049C11.4247 22.746 8.99609 27.4243 8.99609 31.7825C8.99609 37.5623 12.4148 42.6087 17.4961 45.3086" stroke="#0D2B74" stroke-width="2" stroke-linecap="round" stroke-linejoin="round"/>
<path d="M29.1836 43.1836C31.0891 41.9836 32.3711 39.7408 32.3711 37.172C32.3711 33.3391 25.9961 26.1836 25.9961 26.1836C25.9961 26.1836 24.8811 27.4351 23.5837 29.1717C24.995 29.8357 27.6768 34.0098 25.9961 37.172C24.8992 39.2357 21.3557 38.0836 20.2306 34.6836C19.8539 35.5857 19.6211 36.4395 19.6211 37.172C19.6211 39.7408 20.9031 41.9836 22.8086 43.1836" stroke="#0D2B74" stroke-width="2" stroke-linecap="round" stroke-linejoin="round"/>
</svg>
