<svg width="54" height="47" viewBox="0 0 54 47" fill="none" xmlns="http://www.w3.org/2000/svg">
<path d="M48.5674 5.52537C47.3213 4.25479 45.8417 3.24687 44.2132 2.55919C42.5847 1.87152 40.8392 1.51758 39.0765 1.51758C37.3138 1.51758 35.5683 1.87152 33.9398 2.55919C32.3113 3.24687 30.8317 4.25479 29.5856 5.52537L26.9993 8.16106L24.4131 5.52537C21.896 2.96008 18.482 1.51891 14.9222 1.51891C11.3624 1.51891 7.94842 2.96008 5.43127 5.52537C2.91412 8.09067 1.5 11.57 1.5 15.1978C1.5 18.8257 2.91412 22.305 5.43127 24.8703L13.6842 33.1726L25.5662 45.3787C26.3514 46.1853 27.6473 46.1853 28.4325 45.3787L40.3145 33.1726L48.5674 24.8703C49.8142 23.6003 50.8032 22.0924 51.4779 20.4328C52.1527 18.7732 52.5 16.9943 52.5 15.1978C52.5 13.4014 52.1527 11.6225 51.4779 9.96288C50.8032 8.30325 49.8142 6.79537 48.5674 5.52537Z" stroke="#0D2B74" stroke-width="2" stroke-linecap="round" stroke-linejoin="round"/>
</svg>
