<svg width="52" height="53" viewBox="0 0 52 53" fill="none" xmlns="http://www.w3.org/2000/svg">
<circle cx="26" cy="26.918" r="25.5" stroke="white"/>
<circle cx="26" cy="26.918" r="25.5" stroke="black" stroke-opacity="0.2"/>
<circle cx="26.002" cy="26.9167" r="20.5" fill="#CCCCCC"/>
<circle cx="26.002" cy="26.9167" r="20.5" stroke="white"/>
<circle cx="26.002" cy="26.9167" r="20.5" stroke="black" stroke-opacity="0.2"/>
<path d="M33.3149 16.577L13.9255 24.1641C13.1468 24.4688 13.0637 25.5378 13.786 25.9592L18.0002 28.4175L19.2072 34.05C19.3509 34.7205 20.1115 35.0507 20.6995 34.6979L24.5002 32.4175L29.7363 36.0425C30.331 36.4542 31.1525 36.1179 31.2879 35.4074L34.6616 17.6953C34.8088 16.9226 34.0474 16.2903 33.3149 16.577Z" fill="#3A3939"/>
<path d="M33.3149 16.577L13.9255 24.1641C13.1468 24.4688 13.0637 25.5378 13.786 25.9592L18.0002 28.4175L19.2072 34.05C19.3509 34.7205 20.1115 35.0507 20.6995 34.6979L24.5002 32.4175L29.7363 36.0425C30.331 36.4542 31.1525 36.1179 31.2879 35.4074L34.6616 17.6953C34.8088 16.9226 34.0474 16.2903 33.3149 16.577Z" stroke="white"/>
<path d="M33.3149 16.577L13.9255 24.1641C13.1468 24.4688 13.0637 25.5378 13.786 25.9592L18.0002 28.4175L19.2072 34.05C19.3509 34.7205 20.1115 35.0507 20.6995 34.6979L24.5002 32.4175L29.7363 36.0425C30.331 36.4542 31.1525 36.1179 31.2879 35.4074L34.6616 17.6953C34.8088 16.9226 34.0474 16.2903 33.3149 16.577Z" stroke="black" stroke-opacity="0.2"/>
<path d="M29.4645 21.8276L20.1299 27.3435C20.0537 27.3886 20.0162 27.4783 20.0377 27.5642L20.8703 30.8949C20.9154 31.0751 21.1602 31.1019 21.2433 30.9359L21.9856 29.4511C21.9961 29.4301 22.0102 29.4112 22.0272 29.3951L29.7036 22.1452C29.8769 21.9815 29.6698 21.7063 29.4645 21.8276Z" fill="#D9D9D9"/>
</svg>
