<svg width="53" height="53" viewBox="0 0 53 53" fill="none" xmlns="http://www.w3.org/2000/svg">
<ellipse cx="26.4353" cy="26.9202" rx="22.0115" ry="22" fill="white"/>
<ellipse cx="26.4353" cy="26.9202" rx="22.0115" ry="22" fill="black" fill-opacity="0.2"/>
<path d="M35.4641 14.8828H17.401C15.7003 14.8828 14.3899 16.1926 14.3899 17.8923V35.9461C14.3899 37.6442 15.7003 38.9556 17.401 38.9556H35.4641C37.1631 38.9556 38.4752 37.6458 38.4752 35.9461V17.8923C38.4752 16.1926 37.1631 14.8828 35.4641 14.8828ZM26.4504 22.1904C29.1217 22.1904 31.2857 24.2867 31.2857 26.8737C31.2857 29.4591 29.1217 31.5569 26.4504 31.5569C23.7808 31.5569 21.6168 29.4591 21.6168 26.8737C21.6168 24.2867 23.7824 22.1904 26.4504 22.1904ZM35.4641 35.1937C35.4641 35.7218 35.2381 35.9461 34.7113 35.9461H18.1537C17.627 35.9461 17.401 35.7218 17.401 35.1937V24.6621L19.2772 25.0699C19.0756 25.7248 18.9667 26.4171 18.9667 27.1353C18.9667 31.1361 22.3191 34.3828 26.4504 34.3828C30.5833 34.3828 33.9342 31.1377 33.9342 27.1353C33.9342 26.4171 33.8253 25.7248 33.6237 25.0699L35.4641 24.6621V35.1937ZM35.4641 21.6542C35.4641 22.0702 35.1276 22.4066 34.7113 22.4066H31.7003C31.2841 22.4066 30.9475 22.0702 30.9475 21.6542V18.6447C30.9475 18.2287 31.2841 17.8923 31.7003 17.8923H34.7113C35.1276 17.8923 35.4641 18.2287 35.4641 18.6447V21.6542Z" fill="#3A3939"/>
<path d="M26.4337 2.54297C39.8811 2.54297 50.8214 13.4776 50.8214 26.918C50.8214 40.3583 39.8811 51.293 26.4337 51.293C12.9863 51.293 2.04601 40.3583 2.04601 26.918C2.04601 13.4776 12.9863 2.54297 26.4337 2.54297ZM26.4337 0.917969C12.0661 0.917969 0.420166 12.5595 0.420166 26.918C0.420166 41.2765 12.0661 52.918 26.4337 52.918C40.8013 52.918 52.4473 41.2781 52.4473 26.918C52.4473 12.5578 40.8013 0.917969 26.4337 0.917969Z" fill="white"/>
<path d="M26.4337 2.54297C39.8811 2.54297 50.8214 13.4776 50.8214 26.918C50.8214 40.3583 39.8811 51.293 26.4337 51.293C12.9863 51.293 2.04601 40.3583 2.04601 26.918C2.04601 13.4776 12.9863 2.54297 26.4337 2.54297ZM26.4337 0.917969C12.0661 0.917969 0.420166 12.5595 0.420166 26.918C0.420166 41.2765 12.0661 52.918 26.4337 52.918C40.8013 52.918 52.4473 41.2781 52.4473 26.918C52.4473 12.5578 40.8013 0.917969 26.4337 0.917969Z" fill="black" fill-opacity="0.2"/>
</svg>
