<svg width="54" height="53" viewBox="0 0 54 53" fill="none" xmlns="http://www.w3.org/2000/svg">
<ellipse cx="27.0007" cy="26.9167" rx="21.0109" ry="21" fill="white"/>
<ellipse cx="27.0007" cy="26.9167" rx="21.0109" ry="21" fill="black" fill-opacity="0.2"/>
<path d="M25.9237 26.6465C25.2392 26.0143 24.4799 25.1271 24.1499 24.3406C24.0995 24.2398 23.9987 23.9863 24.1499 23.7832C24.4539 23.3786 24.5043 23.3526 24.8344 22.9723C25.062 22.6928 25.2392 22.441 25.1644 22.2118L24.0247 19.2478C23.9223 19.0447 23.6198 19.0203 23.2638 18.9943C22.9598 18.9943 22.6313 18.9943 22.4021 19.0447C21.8948 19.2218 20.8575 20.5901 20.7307 21.5781C20.4511 23.7312 22.4021 26.5945 24.3531 28.3673C26.3041 30.1662 29.3184 31.8643 31.4467 31.3817C32.4352 31.1542 33.7017 30.0135 33.8025 29.4821C33.8529 29.2546 33.8285 28.9247 33.7765 28.6208C33.7505 28.2666 33.6757 28.0131 33.4725 27.9123L30.889 26.7212C30.6598 26.5945 30.4321 26.6952 30.2045 26.9747C29.9265 27.355 29.7981 27.5061 29.4696 27.9123C29.2924 28.1398 29.1656 28.2926 28.964 28.317C28.7348 28.3673 28.4324 28.2406 28.3803 28.2406C27.569 27.9643 26.6325 27.2802 25.9237 26.6465ZM17.4107 35.7432L18.8805 32.0187C17.2579 30.1435 16.2694 27.6848 16.2694 25.0003C16.2694 19.0723 21.0835 14.2835 27.013 14.2835C32.9408 14.2835 37.7289 19.0723 37.7289 25.0003C37.7289 30.9283 32.9408 35.7432 27.013 35.7432C24.6311 35.7432 22.4525 34.9827 20.6787 33.6665L17.4107 35.7432ZM15.6109 32.0935L13.5835 40.2006L20.8299 36.9067C22.6801 37.8687 24.7823 38.4277 27.013 38.4277C34.4106 38.4277 40.4148 32.4233 40.4148 24.9987C40.4148 17.6017 34.409 11.5957 27.013 11.5957C19.5894 11.5957 13.5851 17.6001 13.5851 24.9987C13.5851 27.6101 14.3444 30.0427 15.6109 32.0935Z" fill="#3A3939"/>
<path d="M26.9996 2.54297C40.447 2.54297 51.3873 13.4776 51.3873 26.918C51.3873 40.3583 40.447 51.293 26.9996 51.293C13.5523 51.293 2.61193 40.3583 2.61193 26.918C2.61193 13.4776 13.5523 2.54297 26.9996 2.54297ZM26.9996 0.917969C12.632 0.917969 0.986084 12.5595 0.986084 26.918C0.986084 41.2765 12.6336 52.918 26.9996 52.918C41.3656 52.918 53.0132 41.2781 53.0132 26.918C53.0132 12.5578 41.3656 0.917969 26.9996 0.917969Z" fill="white"/>
<path d="M26.9996 2.54297C40.447 2.54297 51.3873 13.4776 51.3873 26.918C51.3873 40.3583 40.447 51.293 26.9996 51.293C13.5523 51.293 2.61193 40.3583 2.61193 26.918C2.61193 13.4776 13.5523 2.54297 26.9996 2.54297ZM26.9996 0.917969C12.632 0.917969 0.986084 12.5595 0.986084 26.918C0.986084 41.2765 12.6336 52.918 26.9996 52.918C41.3656 52.918 53.0132 41.2781 53.0132 26.918C53.0132 12.5578 41.3656 0.917969 26.9996 0.917969Z" fill="black" fill-opacity="0.2"/>
</svg>
