<svg width="18" height="18" viewBox="0 0 18 18" fill="none" xmlns="http://www.w3.org/2000/svg">
<path d="M17.3672 5.89941C17.1914 5.75879 13.4297 2.73535 12.6211 2.06738C11.8477 1.46973 10.5117 0.0986328 9 0.0986328C7.45312 0.0986328 6.15234 1.43457 5.34375 2.06738C4.5 2.77051 0.738281 5.79395 0.597656 5.89941C0.210938 6.21582 0 6.67285 0 7.2002V16.4111C0 17.3604 0.738281 18.0986 1.6875 18.0986H16.3125C17.2266 18.0986 18 17.3604 18 16.4111V7.2002C18 6.67285 17.7539 6.21582 17.3672 5.89941ZM16.3125 16.2002C16.3125 16.3408 16.207 16.4111 16.1016 16.4111H1.89844C1.75781 16.4111 1.6875 16.3408 1.6875 16.2002V7.30566C1.6875 7.23535 1.6875 7.16504 1.75781 7.12988C2.32031 6.67285 5.58984 4.07129 6.39844 3.40332C7.03125 2.87598 8.15625 1.78613 9 1.78613C9.80859 1.78613 10.9336 2.91113 11.5664 3.40332C12.375 4.07129 15.6445 6.67285 16.207 7.12988C16.2773 7.16504 16.3125 7.23535 16.3125 7.30566V16.2002ZM15.1875 9.62598L14.625 8.95801C14.4844 8.78223 14.2383 8.74707 14.0273 8.92285C13.043 9.73145 11.9883 10.5752 11.5664 10.8916C10.9336 11.4189 9.80859 12.4736 9 12.4736C8.15625 12.4736 7.03125 11.3838 6.39844 10.8916C5.97656 10.5752 4.92188 9.73145 3.9375 8.92285C3.72656 8.74707 3.48047 8.78223 3.33984 8.95801L2.77734 9.62598C2.63672 9.80176 2.67188 10.083 2.84766 10.2236C3.86719 11.0322 4.95703 11.9111 5.34375 12.2275C6.11719 12.8252 7.45312 14.1611 9 14.1611C10.5117 14.1611 11.8125 12.8604 12.6211 12.2275C13.0078 11.876 14.0977 11.0322 15.1172 10.2236C15.293 10.083 15.3281 9.80176 15.1875 9.62598Z" fill="#0D2B74"/>
</svg>
