<svg width="32" height="32" viewBox="0 0 32 32" fill="none" xmlns="http://www.w3.org/2000/svg">
<circle cx="16" cy="16" r="15.5" stroke="white"/>
<circle cx="16" cy="16" r="15.5" stroke="black" stroke-opacity="0.2"/>
<circle cx="16" cy="16" r="12.5" fill="#CCCCCC"/>
<circle cx="16" cy="16" r="12.5" stroke="white"/>
<circle cx="16" cy="16" r="12.5" stroke="black" stroke-opacity="0.2"/>
<path d="M19.3131 9.67131L8.8891 13.8196C8.11784 14.1266 8.03472 15.1853 8.74864 15.6088L10.6522 16.7381L11.2735 19.687C11.4159 20.3625 12.1836 20.6941 12.7729 20.3345L14.6087 19.2143L17.293 21.1043C17.8883 21.5234 18.7176 21.1863 18.8516 20.4707L20.6658 10.7845C20.8108 10.0102 20.0451 9.38002 19.3131 9.67131Z" fill="#3A3939"/>
<path d="M19.3131 9.67131L8.8891 13.8196C8.11784 14.1266 8.03472 15.1853 8.74864 15.6088L10.6522 16.7381L11.2735 19.687C11.4159 20.3625 12.1836 20.6941 12.7729 20.3345L14.6087 19.2143L17.293 21.1043C17.8883 21.5234 18.7176 21.1863 18.8516 20.4707L20.6658 10.7845C20.8108 10.0102 20.0451 9.38002 19.3131 9.67131Z" stroke="white"/>
<path d="M19.3131 9.67131L8.8891 13.8196C8.11784 14.1266 8.03472 15.1853 8.74864 15.6088L10.6522 16.7381L11.2735 19.687C11.4159 20.3625 12.1836 20.6941 12.7729 20.3345L14.6087 19.2143L17.293 21.1043C17.8883 21.5234 18.7176 21.1863 18.8516 20.4707L20.6658 10.7845C20.8108 10.0102 20.0451 9.38002 19.3131 9.67131Z" stroke="black" stroke-opacity="0.2"/>
<path d="M17.367 12.8665L12.1421 15.6389C12.0591 15.6829 12.0179 15.7787 12.0431 15.8692L12.5058 17.531C12.5537 17.7032 12.7862 17.7308 12.8732 17.5747L13.2551 16.8889C13.2667 16.8679 13.2821 16.8492 13.3004 16.8336L17.5901 13.1957C17.7727 13.0409 17.5785 12.7543 17.367 12.8665Z" fill="#D9D9D9"/>
</svg>
