<svg width="32" height="32" viewBox="0 0 32 32" fill="none" xmlns="http://www.w3.org/2000/svg">
<circle cx="16" cy="16" r="13" fill="white"/>
<circle cx="16" cy="16" r="13" fill="black" fill-opacity="0.2"/>
<path d="M16 1C24.271 1 31 7.729 31 16C31 24.271 24.271 31 16 31C7.729 31 1 24.271 1 16C1 7.729 7.729 1 16 1ZM16 0C7.164 0 0 7.164 0 16C0 24.836 7.164 32 16 32C24.836 32 32 24.837 32 16C32 7.163 24.836 0 16 0Z" fill="white"/>
<path d="M16 1C24.271 1 31 7.729 31 16C31 24.271 24.271 31 16 31C7.729 31 1 24.271 1 16C1 7.729 7.729 1 16 1ZM16 0C7.164 0 0 7.164 0 16C0 24.836 7.164 32 16 32C24.836 32 32 24.837 32 16C32 7.163 24.836 0 16 0Z" fill="black" fill-opacity="0.2"/>
<path d="M23.4375 12.1562C23.2812 12.0312 19.9375 9.34375 19.2188 8.75C18.5312 8.21875 17.3438 7 16 7C14.625 7 13.4688 8.1875 12.75 8.75C12 9.375 8.65625 12.0625 8.53125 12.1562C8.1875 12.4375 8 12.8438 8 13.3125V21.5C8 22.3438 8.65625 23 9.5 23H22.5C23.3125 23 24 22.3438 24 21.5V13.3125C24 12.8438 23.7812 12.4375 23.4375 12.1562ZM22.5 21.3125C22.5 21.4375 22.4062 21.5 22.3125 21.5H9.6875C9.5625 21.5 9.5 21.4375 9.5 21.3125V13.4062C9.5 13.3438 9.5 13.2812 9.5625 13.25C10.0625 12.8438 12.9688 10.5312 13.6875 9.9375C14.25 9.46875 15.25 8.5 16 8.5C16.7188 8.5 17.7188 9.5 18.2812 9.9375C19 10.5312 21.9062 12.8438 22.4062 13.25C22.4688 13.2812 22.5 13.3438 22.5 13.4062V21.3125ZM21.5 15.4688L21 14.875C20.875 14.7188 20.6562 14.6875 20.4688 14.8438C19.5938 15.5625 18.6562 16.3125 18.2812 16.5938C17.7188 17.0625 16.7188 18 16 18C15.25 18 14.25 17.0312 13.6875 16.5938C13.3125 16.3125 12.375 15.5625 11.5 14.8438C11.3125 14.6875 11.0938 14.7188 10.9688 14.875L10.4688 15.4688C10.3438 15.625 10.375 15.875 10.5312 16C11.4375 16.7188 12.4062 17.5 12.75 17.7812C13.4375 18.3125 14.625 19.5 16 19.5C17.3438 19.5 18.5 18.3438 19.2188 17.7812C19.5625 17.4688 20.5312 16.7188 21.4375 16C21.5938 15.875 21.625 15.625 21.5 15.4688Z" fill="#3A3939"/>
</svg>
