<svg width="32" height="32" viewBox="0 0 32 32" fill="none" xmlns="http://www.w3.org/2000/svg">
<circle cx="16" cy="16" r="13" fill="white"/>
<circle cx="16" cy="16" r="13" fill="black" fill-opacity="0.2"/>
<path d="M15.8186 16.4709C15.3849 16.0731 14.9038 15.5148 14.6947 15.0199C14.6628 14.9565 14.5989 14.797 14.6947 14.6691C14.8874 14.4145 14.9193 14.3982 15.1284 14.1589C15.2726 13.983 15.3849 13.8245 15.3375 13.6803L14.6154 11.8152C14.5505 11.6874 14.3589 11.672 14.1333 11.6557C13.9407 11.6557 13.7326 11.6557 13.5873 11.6874C13.266 11.7988 12.6087 12.6598 12.5284 13.2815C12.3512 14.6364 13.5873 16.4382 14.8235 17.5538C16.0596 18.6857 17.9695 19.7543 19.3179 19.4506C19.9442 19.3074 20.7467 18.5896 20.8105 18.2552C20.8425 18.1121 20.827 17.9045 20.794 17.7133C20.7776 17.4904 20.7302 17.3309 20.6014 17.2675L18.9646 16.5179C18.8193 16.4382 18.6751 16.5016 18.5309 16.6774C18.3547 16.9167 18.2733 17.0118 18.0653 17.2675C17.953 17.4106 17.8726 17.5067 17.7449 17.5221C17.5996 17.5538 17.408 17.474 17.3751 17.474C16.8611 17.3002 16.2677 16.8697 15.8186 16.4709ZM10.4249 22.1951L11.3561 19.8514C10.3281 18.6714 9.70175 17.1243 9.70175 15.435C9.70175 11.7048 12.7519 8.6913 16.5088 8.6913C20.2646 8.6913 23.2983 11.7048 23.2983 15.435C23.2983 19.1653 20.2646 22.1951 16.5088 22.1951C14.9996 22.1951 13.6193 21.7166 12.4954 20.8883L10.4249 22.1951ZM9.28455 19.8985L8 25L12.5912 22.9273C13.7635 23.5326 15.0954 23.8844 16.5088 23.8844C21.1958 23.8844 25 20.1061 25 15.434C25 10.7794 21.1948 7 16.5088 7C11.8052 7 8.00103 10.7783 8.00103 15.434C8.00103 17.0773 8.48209 18.608 9.28455 19.8985Z" fill="#3A3939"/>
<path d="M16 1C24.271 1 31 7.729 31 16C31 24.271 24.271 31 16 31C7.729 31 1 24.271 1 16C1 7.729 7.729 1 16 1ZM16 0C7.163 0 0 7.164 0 16C0 24.836 7.164 32 16 32C24.836 32 32 24.837 32 16C32 7.163 24.836 0 16 0Z" fill="white"/>
<path d="M16 1C24.271 1 31 7.729 31 16C31 24.271 24.271 31 16 31C7.729 31 1 24.271 1 16C1 7.729 7.729 1 16 1ZM16 0C7.163 0 0 7.164 0 16C0 24.836 7.164 32 16 32C24.836 32 32 24.837 32 16C32 7.163 24.836 0 16 0Z" fill="black" fill-opacity="0.2"/>
</svg>
