<svg width="32" height="32" viewBox="0 0 32 32" fill="none" xmlns="http://www.w3.org/2000/svg">
<circle cx="16" cy="16" r="13" fill="white"/>
<circle cx="16" cy="16" r="13" fill="black" fill-opacity="0.2"/>
<path d="M16 1C24.271 1 31 7.729 31 16C31 24.271 24.271 31 16 31C7.729 31 1 24.271 1 16C1 7.729 7.729 1 16 1ZM16 0C7.164 0 0 7.164 0 16C0 24.836 7.164 32 16 32C24.836 32 32 24.837 32 16C32 7.163 24.836 0 16 0Z" fill="white"/>
<path d="M16 1C24.271 1 31 7.729 31 16C31 24.271 24.271 31 16 31C7.729 31 1 24.271 1 16C1 7.729 7.729 1 16 1ZM16 0C7.164 0 0 7.164 0 16C0 24.836 7.164 32 16 32C24.836 32 32 24.837 32 16C32 7.163 24.836 0 16 0Z" fill="black" fill-opacity="0.2"/>
<path d="M22.4062 8.78125L19.1562 8.03125C18.8125 7.9375 18.4375 8.125 18.2812 8.46875L16.7812 11.9688C16.6562 12.2812 16.75 12.625 17 12.8438L18.9062 14.4062C17.7812 16.7812 15.8125 18.7812 13.375 19.9375L11.8125 18.0312C11.5938 17.7812 11.25 17.6875 10.9375 17.8125L7.4375 19.3125C7.09375 19.4688 6.9375 19.8438 7 20.1875L7.75 23.4375C7.84375 23.7812 8.125 24 8.5 24C16.5 24 23 17.5312 23 9.5C23 9.15625 22.75 8.875 22.4062 8.78125Z" fill="#3A3939"/>
</svg>
