<svg width="29" height="30" viewBox="0 0 29 30" fill="none" xmlns="http://www.w3.org/2000/svg">
<path fill-rule="evenodd" clip-rule="evenodd" d="M14.4716 0.947266C6.68238 0.947266 0.356934 7.41647 0.356934 15.3827C0.356934 23.3489 6.68238 29.8181 14.4716 29.8181C15.0257 29.8181 15.5704 29.7775 16.1089 29.7133L16.1256 29.7304L16.1444 29.709C23.1453 28.8611 28.5862 22.7694 28.5862 15.3827C28.5862 7.9971 23.1453 1.90963 16.1465 1.05954C16.1287 1.04457 16.1131 1.02746 16.0942 1.01249V1.00608L16.0629 1.04564C15.5391 0.984691 15.009 0.947266 14.4716 0.947266ZM13.9488 2.04329V7.36301H9.41121C10.37 5.28538 11.6842 3.48362 13.2546 2.07964C13.4835 2.05826 13.7167 2.05291 13.9488 2.04329ZM14.9943 2.04329C15.2275 2.05398 15.4617 2.05719 15.6907 2.07964C17.2642 3.48362 18.5815 5.28217 19.5424 7.36301H14.9943V2.04329ZM11.4144 2.39829C10.0926 3.85891 9.02154 5.53744 8.24649 7.36301H4.03197C5.85341 4.87996 8.46345 3.12425 11.4144 2.39829ZM17.5266 2.39829C20.4784 3.12371 23.0903 4.87948 24.9122 7.36301H20.7029C19.9258 5.53683 18.8512 3.85825 17.5266 2.39829ZM3.32205 8.4323H7.82828C7.09355 10.4903 6.69373 12.6577 6.64474 14.848H1.4286C1.5126 12.5791 2.16521 10.3702 3.32205 8.4323ZM8.97 8.4323H13.9488V14.848H7.69027C7.74765 12.6495 8.18076 10.4782 8.97 8.4323ZM14.9943 8.4323H19.9815C20.7709 10.4781 21.204 12.6495 21.2612 14.848H14.9943V8.4323ZM21.1211 8.4323H25.6211C26.7779 10.3702 27.4295 12.5791 27.5135 14.848H22.3068C22.2568 12.6575 21.8559 10.4902 21.1201 8.4323H21.1211ZM1.42755 15.9173H6.6437C6.69261 18.1077 7.09243 20.2751 7.82724 22.3331H3.31996C2.1637 20.395 1.51252 18.1861 1.4286 15.9173H1.42755ZM7.68923 15.9173H13.9488V22.3331H8.97C8.18078 20.2872 7.74767 18.1159 7.69027 15.9173H7.68923ZM14.9933 15.9173H21.2341C21.1232 17.9308 20.5858 20.1442 19.6469 22.3331H14.9943L14.9933 15.9173ZM22.2806 15.9173H27.5135C27.4296 18.1861 26.7784 20.395 25.6221 22.3331H20.7824C21.6638 20.1624 22.1782 17.9661 22.2806 15.9173ZM4.03197 23.4024H8.24858C9.02365 25.2279 10.0947 26.9065 11.4165 28.3671C8.46426 27.6421 5.85186 25.8863 4.02988 23.4024H4.03197ZM9.41226 23.4024H13.9499V28.7221C13.7188 28.7114 13.4856 28.7071 13.2577 28.6857C11.6852 27.2818 10.3721 25.4821 9.41226 23.4024ZM14.9954 23.4024H19.1388C18.2061 25.3195 17.0233 27.0983 15.6227 28.69C15.4157 28.7093 15.2045 28.7135 14.9954 28.7221V23.4024ZM20.315 23.4024H24.9133C23.0237 25.9853 20.2828 27.7803 17.1983 28.4548C18.4312 26.9047 19.4769 25.2083 20.3129 23.4024H20.315Z" fill="white"/>
</svg>
